<?xml version="1.0" encoding="iso-8859-1"?>
<!-- Generator: Adobe Illustrator 19.0.0, SVG Export Plug-In . SVG Version: 6.00 Build 0)  -->
<svg version="1.1" id="Capa_1" xmlns="http://www.w3.org/2000/svg" xmlns:xlink="http://www.w3.org/1999/xlink" x="0px" y="0px"
	 viewBox="0 0 512 512" style="enable-background:new 0 0 512 512;" xml:space="preserve">
<path style="fill:#FF4181;" d="M332.136,1.763c-26.338,0-52.337,5.818-76.136,16.944C232.202,7.582,206.202,1.763,179.864,1.763
	C80.687,1.763,0,82.451,0,181.629c0,42.918,11.596,85.874,34.466,127.673c17.187,31.41,40.811,62.236,70.218,91.621
	c48.942,48.906,98.992,78.739,104.539,81.979l46.778,27.335l46.776-27.334c5.545-3.241,55.592-33.068,104.54-81.98
	c29.408-29.385,53.033-60.211,70.218-91.621C500.404,267.504,512,224.547,512,181.629C512,82.451,431.313,1.763,332.136,1.763z
	 M271.593,429.536L256,438.647l-15.593-9.112c-7.293-4.262-178.596-105.996-178.596-247.907
	c0-65.095,52.959-118.055,118.054-118.055c28.284,0,55.15,10.163,76.136,27.864c20.986-17.703,47.852-27.864,76.136-27.864
	c65.095,0,118.054,52.96,118.054,118.055C450.189,323.539,278.885,425.274,271.593,429.536z"/>
<path style="fill:#FFCE47;" d="M332.136,32.669c-26.887,0-53.209,7.334-76.136,20.965c-22.926-13.63-49.249-20.965-76.136-20.965
	c-82.136,0-148.959,66.824-148.959,148.96c0,37.675,10.32,75.64,30.673,112.839c15.773,28.828,37.625,57.289,64.951,84.594
	c46.203,46.169,93.091,74.122,98.285,77.156L256,474.441l31.185-18.223c5.194-3.035,52.083-30.989,98.285-77.156
	c27.326-27.305,49.178-55.767,64.951-84.594c20.353-37.199,30.674-75.164,30.674-112.839
	C481.095,99.492,414.272,32.669,332.136,32.669z M407.169,276.969c-14.262,24.816-34.035,49.559-58.77,73.543
	c-41.685,40.418-82.869,64.669-84.603,65.681L256,420.748l-7.796-4.554c-1.733-1.013-42.916-25.263-84.603-65.681
	c-24.736-23.984-44.509-48.727-58.77-73.543c-18.293-31.832-27.568-63.908-27.568-95.341c0-56.574,46.026-102.602,102.601-102.602
	c29.324,0,56.901,12.575,76.136,33.849c19.235-21.273,46.81-33.849,76.136-33.849c56.574,0,102.601,46.026,102.601,102.602
	C434.736,213.062,425.462,245.138,407.169,276.969z"/>
<path style="fill:#3DB2FF;" d="M332.136,63.574c-28.284,0-55.15,10.163-76.136,27.864c-20.986-17.703-47.852-27.864-76.136-27.864
	c-65.095,0-118.054,52.96-118.054,118.055c0,141.911,171.304,243.645,178.596,247.907L256,438.647l15.593-9.112
	c7.293-4.262,178.596-105.996,178.596-247.907C450.189,116.534,397.231,63.574,332.136,63.574z"/>
<path style="fill:#E3F4FF;" d="M332.136,94.48c-2.697,0-5.361,0.134-7.995,0.374L256,402.852c0,0,163.284-95.415,163.284-221.223
	C419.284,133.498,380.266,94.48,332.136,94.48z"/>
<path style="fill:#FFFFFF;" d="M388.378,181.629c0-45.462-28.226-82.774-64.238-86.774c-29.341,2.671-54.471,19.884-68.14,44.373
	c-14.895-26.689-43.4-44.748-76.136-44.748c-48.13,0.001-87.148,39.018-87.148,87.149C92.716,307.435,256,402.852,256,402.852
	S388.378,307.435,388.378,181.629z"/>
<g>
</g>
<g>
</g>
<g>
</g>
<g>
</g>
<g>
</g>
<g>
</g>
<g>
</g>
<g>
</g>
<g>
</g>
<g>
</g>
<g>
</g>
<g>
</g>
<g>
</g>
<g>
</g>
<g>
</g>
</svg>
